<svg width="576" height="497" viewBox="0 0 576 497" fill="none" xmlns="http://www.w3.org/2000/svg">
<circle cx="288.5" cy="248.5" r="241.5" fill="#D9D9D9" stroke="#638C6D" stroke-width="14"/>
<path d="M288 161L469.865 370.25H106.135L288 161Z" fill="#86A68E"/>
<path d="M158 375.516C201.167 369.911 282.036 286.398 289.686 153M289.686 153C315.367 318.346 391.865 375.516 417 375.516M289.686 153V380" stroke="#D9D9D9" stroke-width="10" stroke-linejoin="round"/>
<path d="M140 227V291" stroke="#86A68E" stroke-width="10"/>
<path d="M70 361C73.1568 357.843 244.649 186.351 330 101" stroke="#638C6D" stroke-width="14"/>
<path d="M250 101C253.096 104.096 421.29 272.29 505 356" stroke="#638C6D" stroke-width="14"/>
<path d="M85 375H495" stroke="#638C6D" stroke-width="14"/>
<path d="M104 407L468 407" stroke="#638C6D" stroke-width="14"/>
<path d="M137 440L435 440" stroke="#638C6D" stroke-width="14"/>
<path d="M181 466L398 466" stroke="#638C6D" stroke-width="14"/>
<path d="M140 101L178.105 150.5H101.895L140 101Z" fill="#86A68E"/>
<path d="M139.5 141L185.832 194.25H93.1676L139.5 141Z" fill="#86A68E"/>
<path d="M139.5 180L187.564 236.25H91.4356L139.5 180Z" fill="#86A68E"/>
<circle cx="209.5" cy="112.5" r="12.5" fill="#86A68E"/>
<circle cx="404.5" cy="177.5" r="11.5" fill="#86A68E"/>
<circle cx="458.5" cy="168.5" r="9.5" fill="#86A68E"/>
<circle cx="454" cy="219" r="14" fill="#86A68E"/>
<circle cx="392.5" cy="109.5" r="30.5" stroke="#86A68E" stroke-width="10"/>
</svg>
