<svg width="1352" height="1352" viewBox="0 0 1352 1352" fill="none" xmlns="http://www.w3.org/2000/svg">
<circle cx="676" cy="676" r="659" fill="white" stroke="#638C6D" stroke-width="34"/>
<path d="M675 439L1169.5 1007.5H180.499L675 439Z" fill="#86A68E"/>
<path d="M321 1021.79C438.333 1006.53 658.148 779.17 678.941 416M678.941 416C748.747 866.148 956.679 1021.79 1025 1021.79M678.941 416V1034" stroke="white" stroke-width="26" stroke-linejoin="round"/>
<path d="M271 618V791" stroke="#86A68E" stroke-width="26"/>
<path d="M81 983C89.5841 974.392 555.91 506.746 788 274" stroke="#638C6D" stroke-width="34"/>
<path d="M571 274C579.523 282.536 1042.55 746.223 1273 977" stroke="#638C6D" stroke-width="34" stroke-linejoin="round"/>
<path d="M104 1020L1237 1020" stroke="#638C6D" stroke-width="34"/>
<path d="M175 1108L1164 1108" stroke="#638C6D" stroke-width="34"/>
<path d="M264 1197L1075 1197" stroke="#638C6D" stroke-width="34"/>
<path d="M383 1268L974 1268" stroke="#638C6D" stroke-width="34"/>
<path d="M272 274L375.923 409H168.077L272 274Z" fill="#86A68E"/>
<path d="M270.5 383L396.507 528.5H144.493L270.5 383Z" fill="#86A68E"/>
<path d="M270.5 490L401.703 642.25H139.297L270.5 490Z" fill="#86A68E"/>
<ellipse cx="460.5" cy="306" rx="33.5" ry="35" fill="#86A68E"/>
<ellipse cx="991.5" cy="483" rx="31.5" ry="31" fill="#86A68E"/>
<ellipse cx="1138" cy="458.5" rx="26" ry="25.5" fill="#86A68E"/>
<ellipse cx="1126" cy="596.5" rx="38" ry="38.5" fill="#86A68E"/>
<circle cx="958.5" cy="298.5" r="83.5" stroke="#86A68E" stroke-width="26"/>
</svg>
